# Wavefront OBJ exported by MilkShape 3D

mtllib QBO.mtl

v -1.040527 2.081055 1.040527
v -1.040527 -0.000000 -1.040527
v -1.040527 -0.000000 1.040527
v -1.040527 2.081055 -1.040527
v 1.040527 2.081055 1.040527
v -1.040527 -0.000000 1.040527
v 1.040527 -0.000000 1.040527
v -1.040527 2.081055 1.040527
v 1.040527 2.081055 -1.040527
v -1.040527 2.081055 1.040527
v 1.040527 2.081055 1.040527
v 1.040527 -0.000000 -1.040527
v -1.040527 2.081055 -1.040527
v 1.040527 2.081055 -1.040527
v -1.040527 -0.000000 -1.040527
v 1.040527 -0.000000 1.040527
v 1.040527 -0.000000 -1.040527
v -1.040527 -0.000000 1.040527
v 1.040527 2.081055 1.040527
v 1.040527 -0.000000 1.040527
# 20 vertices

vt 0.432861 0.937012
vt 0.062988 0.567139
vt 0.432861 0.567139
vt 0.062988 0.937012
# 4 texture coordinates

vn -1.000000 -0.000000 -0.000000
vn 0.000000 -0.000000 1.000000
vn 0.000000 1.000000 -0.000000
vn 0.000000 -0.000000 -1.000000
vn 0.000000 -1.000000 -0.000000
vn 1.000000 -0.000000 -0.000000
# 6 normals

g default
usemtl texture
s 255
f 1/1/1 2/2/1 3/3/1
f 2/2/1 1/1/1 4/4/1
f 5/1/2 6/2/2 7/3/2
f 6/2/2 5/1/2 8/4/2
f 9/1/3 10/2/3 11/3/3
f 10/2/3 9/1/3 4/4/3
f 12/2/4 13/1/4 14/4/4
f 13/1/4 12/2/4 15/3/4
f 16/1/5 2/2/5 17/3/5
f 2/2/5 16/1/5 18/4/5
f 17/3/6 19/4/6 20/2/6
f 19/4/6 17/3/6 9/1/6
# 12 triangles in group

# 12 triangles total

